<svg width="607" height="311" viewBox="0 0 607 311" fill="none" xmlns="http://www.w3.org/2000/svg">
<path d="M109.587 33.8302L92.2229 41.3421C82.5835 45.512 76.3428 55.0116 76.3428 65.5142C76.3428 76.6168 83.3472 86.4191 93.7541 90.2893C104.094 94.1349 110.008 101.573 110.008 110.534V237.656C110.008 275.892 141.004 306.888 179.24 306.888H187.436L182.397 298.637C174.684 286.007 170.604 271.494 170.604 256.695V80.4952C170.604 66.8997 162.847 52.2481 148.787 47.2315C166.606 39.2496 167.075 0.207031 135.256 0.207031C106.946 0.207031 104.996 23.8956 109.587 33.8302Z" fill="#050606"/>
<path d="M13.8486 184.376C48.3207 150.841 79.1737 110.223 95.6038 78.5586L125.753 93.9178C107.965 113.514 81.435 176.391 64.1179 218.033C55.2811 239.282 31.3077 242.301 14.9666 231.808C-1.78186 221.053 -4.58647 201.219 7.12294 185.123C16.92 171.655 28.3881 168.843 35.1033 168.843" fill="#050606"/>
<path d="M144.683 170.422H38.4844V225.13H144.683V170.422Z" fill="#050606"/>
<path d="M166.909 170.422C185.321 170.422 192.017 183.331 192.017 195.53C192.017 207.728 187.604 222.115 163.029 234.672C138.454 247.23 166.909 170.422 166.909 170.422Z" fill="#050606"/>
<path d="M110.007 200.257V201.593C123.98 196.057 156.553 194.974 170.603 199.321V197.999C153.092 192.402 127.917 193.777 110.007 200.257ZM110.007 181.349V182.687C123.65 177.209 156.51 175.477 170.603 179.882V178.56C153.331 172.993 127.272 174.873 110.007 181.349ZM110.007 219.2V220.528C124.311 214.937 156.596 214.502 170.603 218.791V217.477C152.852 211.85 128.567 212.715 110.007 219.2ZM109.638 105.946L109.668 106.955C109.687 107.056 109.715 107.153 109.733 107.254C121.836 101.944 156.239 97.5268 170.603 102.2V100.88C154.145 95.3858 124.215 99.3846 109.638 105.946ZM110.007 162.449V163.791C123.321 158.368 156.468 155.989 170.603 160.452V159.131C153.569 153.591 126.628 155.975 110.007 162.449ZM110.012 238.098C110.015 238.539 110.018 238.979 110.029 239.418C124.673 233.778 156.645 233.995 170.602 238.222V236.907C152.614 231.254 129.22 231.612 110.012 238.098ZM110.007 124.69V126.038C122.666 120.726 156.384 117.051 170.603 121.632V120.312C154.044 114.832 125.348 118.221 110.007 124.69ZM110.007 143.591V144.936C122.993 139.568 156.426 136.541 170.603 141.064V139.742C153.807 134.233 125.987 137.121 110.007 143.591Z" fill="white"/>
<path d="M93.7755 89.8735L93.7897 89.8787C93.913 89.9101 94.0356 89.9385 94.1581 89.9676C74.0588 79.6818 76.977 43.5006 102.245 42.6091C101.941 42.5635 101.554 42.5135 101.423 42.5C76.3426 42.4993 71.3132 78.5556 93.7755 89.8735Z" fill="white"/>
<path d="M99.3689 90.6388C99.5057 90.6441 99.6432 90.6493 99.7792 90.653C81.587 79.6685 86.9257 45.4729 108.765 43.6704C108.366 43.6136 107.981 43.5568 107.615 43.5C85.6583 45.1164 79.5162 79.4137 99.3689 90.6388Z" fill="white"/>
<path d="M104.611 90.6925C104.879 90.7097 105.135 90.7381 105.383 90.7732C94.032 79.0996 98.7295 50.0439 117.937 44.5573C117.574 44.5304 117.213 44.5042 116.867 44.4766C96.0542 48.8819 91.5352 79.6063 104.611 90.6925Z" fill="white"/>
<path d="M137.039 45.668C117.265 50.624 102.854 75.5165 107.025 91.1635C107.298 91.2606 107.548 91.3712 107.784 91.4908C105.832 77.3258 119.433 51.3086 139.071 45.7136C138.394 45.6949 137.717 45.6799 137.039 45.668Z" fill="white"/>
<path d="M162.963 56.8102C140.141 54.4816 111.604 75.0472 108.653 92.0415C108.927 92.2538 109.161 92.4802 109.352 92.7171C113.228 78.0753 141.283 56.6547 163.623 57.967L162.963 56.8102Z" fill="white"/>
<path d="M171.209 80.1619C152.797 71.3356 122.413 82.1221 109.982 94.0654C109.999 94.1745 110.007 94.2829 110.007 94.3897V95.4135C121.723 84.1428 155.503 76.001 171.25 81.4929L171.209 80.1619Z" fill="white"/>
<path d="M137.937 45.6871C135.893 40.0711 128.058 30.5139 119.883 29.4453C119.783 29.4902 118.739 29.9273 118.739 29.9273C126.481 31.4369 134.535 41.1473 136.15 45.634L137.937 45.6871Z" fill="white"/>
<path d="M107.612 43.4998C103.42 39.4248 97.179 39.5616 94.1935 40.5076L90.8486 41.9821C92.4927 41.2572 101.295 39.8926 106.517 43.2726L107.612 43.4998Z" fill="white"/>
<path d="M104.871 35.8689C111.901 34.4371 118.365 41.0955 120.313 44.7902L122.819 44.983C120.574 40.3953 112.886 33.4073 106.361 35.2247L104.871 35.8689Z" fill="white"/>
<path d="M130.432 19.7719C124.694 14.5931 126.377 3.3433 130.107 0.496094C129.458 0.571571 128.828 0.663489 128.211 0.766616C123.882 4.34169 123.772 15.7477 130.432 19.7719ZM130.432 19.7719C130.432 19.7719 130.541 19.7846 130.432 19.7719V19.7719ZM130.704 24.3244C130.565 24.4604 130.409 24.5927 130.24 24.722C123.604 22.2178 112.805 22.4009 107.691 24.7937C107.706 25.4663 107.742 26.1284 107.804 26.7763C112.085 24.8535 122.296 23.3059 129.572 25.2249C129.616 25.204 129.673 25.1666 129.734 25.1248C142.716 22.2686 155.183 37.849 148.786 47.2306C149.164 47.061 149.532 46.8727 149.894 46.6761C156.317 38.9214 146.54 21.1357 130.704 24.3244ZM131.448 21.676C125.11 19.0276 116.78 13.4184 112.024 10.0525C111.497 10.7841 111.021 11.5367 110.599 12.3094C116.564 15.7298 124.649 19.8429 131.319 22.5309C131.609 21.9929 131.448 21.676 131.448 21.676ZM131.463 20.6918C131.461 20.6858 131.466 20.7038 131.468 20.709C140.225 9.90308 159.052 15.9995 160.56 29.968C160.782 28.6236 160.914 27.2561 160.95 25.8818C157.774 12.7286 137.106 9.17596 131.463 20.6918ZM150.453 4.24753C149.897 3.88808 149.319 3.54656 148.715 3.22896C139.904 2.0445 129.157 9.10572 130.909 19.7712C131.768 9.45396 141.353 3.1632 150.453 4.24753Z" fill="white"/>
<path d="M110.007 110.532C110.007 110.309 109.987 110.092 109.979 109.871C105.407 102.116 92.3364 94.276 83.9644 98.7067C83.7672 99.0206 83.5706 99.3329 83.3711 99.6475C90.7716 95.8625 106.029 104.77 110.007 112.968V110.532Z" fill="white"/>
<path d="M75.3441 111.766C75.1095 112.106 74.8748 112.446 74.6387 112.788C82.6729 109.089 101.476 121.134 103.068 130.684C103.296 130.236 103.523 129.792 103.75 129.348C102.569 119.874 85.0246 107.066 75.3441 111.766Z" fill="white"/>
<path d="M65.6742 125.243C65.3985 125.613 65.1227 125.982 64.8447 126.352C72.7698 122.765 94.1298 136.149 95.2358 146.705C95.4414 146.271 95.6469 145.836 95.8524 145.403C95.0901 134.981 75.2494 120.778 65.6742 125.243Z" fill="white"/>
<path d="M54.499 139.637C54.1874 140.024 53.8795 140.41 53.5664 140.796C61.694 138.052 85.9849 151.429 87.8801 162.644C88.0781 162.204 88.2769 161.764 88.4757 161.325C86.7913 150.215 64.0353 136.097 54.499 139.637Z" fill="white"/>
<path d="M41.3908 155.259C41.009 155.697 40.6234 156.133 40.2393 156.57C46.8117 152.438 77.6781 169.283 79.2931 182.111C79.4874 181.663 79.6816 181.214 79.8767 180.765C78.3119 168.241 50.1507 150.905 41.3908 155.259Z" fill="white"/>
<path d="M70.998 201.572C71.1841 201.129 71.3724 200.683 71.56 200.239C70.0549 186.876 37.2216 166.845 28.0426 169.961L26.7998 171.27C33.9417 168.363 69.5968 187.938 70.998 201.572Z" fill="white"/>
<path d="M3.62562 190.873C3.62562 190.873 2.82751 192.414 2.80957 192.628C4.40057 189.603 6.65816 188.06 9.90442 187.197L11.4767 185.883C7.32549 186.048 4.82578 188.705 3.62562 190.873Z" fill="white"/>
<path d="M15.1698 176.491C15.1698 176.491 13.9263 177.476 13.5078 177.926C16.355 177.209 17.7084 178.487 18.78 179.502L20.2903 177.982C19.324 177.096 16.8991 175.743 15.1698 176.491Z" fill="white"/>
<path d="M16.7348 181.539C16.6055 181.783 15.7178 182.53 15.5713 182.687C24.5942 186.859 55.187 211.753 62.8155 220.792C63.0135 220.41 63.2108 220.026 63.3976 219.63C57.7234 210.319 28.7065 184.539 16.7348 181.539Z" fill="white"/>
<path d="M13.8482 184.371L13.1637 185.137C5.29093 202.065 35.6365 233.578 56.6198 229.17C56.9673 228.836 57.3118 228.498 57.6466 228.143C44.5002 231.735 8.64106 205.497 13.8482 184.371Z" fill="white"/>
<path d="M12.9248 185.184L12.2261 185.814C-10.568 202.907 22.6345 247.242 52.8709 232.224C53.5853 231.734 54.287 231.219 54.9648 230.659C30.9489 246.607 -10.2384 206.82 12.9248 185.184Z" fill="white"/>
<path d="M9.90355 187.195L9.10768 187.914C-9.06213 203.971 7.983 233.643 30.9392 237.445C38.4511 238.264 46.0967 236.721 52.4487 232.513C52.4502 232.511 52.454 232.508 52.4555 232.508C24.5476 250.241 -15.2976 211.589 9.90355 187.195Z" fill="white"/>
<path d="M70.8076 225.135H72.1072C74.9947 215.551 75.7488 204.409 74.4462 193.422C73.8521 194.819 73.2632 196.209 72.6803 197.587C73.3148 208.138 72.6729 218.704 70.8076 225.135Z" fill="white"/>
<path d="M175.062 175.229C147.861 172.712 135.488 186.665 130.248 219.681C128.843 228.532 123.476 237.033 120.564 237.662C130.236 242.234 140.445 239.54 149.899 234.903C157.548 231.15 166.932 235.521 178.792 224.215C187.372 216.034 175.062 175.229 175.062 175.229Z" fill="#050606"/>
<path d="M134.041 202.968C143.588 194.814 154.951 198.436 161.867 205.959C168.784 213.481 171.253 224.903 163.012 232.349L164.238 232.134C172.018 225.61 170.759 212.28 163.574 204.817C156.059 197.011 143.562 193.474 134.353 201.961L134.041 202.968Z" fill="white"/>
<path d="M138.685 191.936C148.757 180.475 167.122 184.196 175.564 193.419C184.005 202.643 185.001 218.316 175.056 227.341L176.129 226.642C186.66 217.457 185.945 201.6 177.626 192.038C168.754 181.841 149.901 178.052 139.458 190.605L138.685 191.936Z" fill="white"/>
<path d="M153.47 177.861C161.668 174.941 173.687 173.951 183.787 184.97C192.235 194.187 191.243 210.131 183.609 219.269L184.346 218.36C191.623 211.348 193.683 194.056 185.101 184.337C174.681 172.535 160.217 174.231 154.665 177.367L153.47 177.861Z" fill="white"/>
<path d="M130.369 218.93C135.623 214.192 143.012 215.493 147.001 219.908C150.99 224.323 151.58 231.852 146.224 236.583L147.433 236.059C153.671 231.2 152.988 223.686 148.732 219.096C144.193 214.199 135.691 212.526 130.602 217.538L130.369 218.93Z" fill="white"/>
<path d="M125.792 232.073C128.292 229.82 131.472 230.823 133.37 232.924C135.268 235.024 135.533 238.45 132.856 240.032L133.494 240.046C137.171 238.743 136.737 233.71 134.712 231.526C132.551 229.196 127.91 228.747 126.178 231.439L125.792 232.073Z" fill="white"/>
<path d="M90.3379 170.422C95.9934 183.596 95.6557 212.643 91.3176 225.13H92.6328C98.4154 208.899 98.1419 187.744 91.6696 170.422H90.3379Z" fill="white"/>
<path d="M171.373 267.789C171.31 267.334 171.261 266.877 171.205 266.42C158.009 261.571 133.645 268.698 123.664 278.943C123.93 279.3 124.2 279.652 124.471 280.003C135.342 270.753 158.636 264.644 171.373 267.789ZM170.604 254.72V253.374C156.499 247.367 126.376 249.767 113.311 258.829C113.444 259.244 113.578 259.657 113.719 260.068C127.652 252.047 156.893 250.223 170.604 254.72ZM181.864 297.726C177.135 296.503 172.809 303.106 176.385 306.823C176.764 306.838 177.143 306.855 177.524 306.864C174.457 303.245 178.161 297.59 182.214 298.323C182.095 298.125 181.981 297.925 181.864 297.726ZM177.382 289.011C166.931 284.635 157 295.42 158.225 303.635C158.633 303.764 159.042 303.889 159.452 304.011C159.438 295.704 168.444 286.468 177.823 289.979C177.677 289.657 177.524 289.335 177.382 289.011ZM173.798 279.112C173.69 278.738 173.582 278.363 173.479 277.987C158.428 272.865 143.826 283.528 142.013 296.034C142.307 296.222 142.605 296.405 142.902 296.589C146.264 284.413 160.326 275.557 173.798 279.112Z" fill="white"/>
<path d="M524.569 33.8302L507.205 41.3421C497.566 45.512 491.325 55.0116 491.325 65.5142C491.325 76.6168 498.33 86.4191 508.737 90.2893C519.076 94.1349 524.99 101.573 524.99 110.534V237.656C524.99 275.892 555.987 306.888 594.222 306.888H602.419L597.379 298.637C589.667 286.007 585.586 271.494 585.586 256.695V80.4952C585.586 66.8997 577.829 52.2481 563.769 47.2315C581.589 39.2496 582.058 0.207031 550.239 0.207031C521.929 0.207031 519.98 23.8956 524.569 33.8302Z" fill="#050606"/>
<path d="M428.832 184.376C463.304 150.841 494.157 110.223 510.587 78.5586L540.736 93.9178C522.948 113.514 496.418 176.391 479.101 218.033C470.264 239.282 446.291 242.301 429.95 231.808C413.202 221.053 410.397 201.219 422.106 185.123C431.903 171.655 443.371 168.843 450.087 168.843" fill="#050606"/>
<path d="M559.666 170.422H453.468V225.13H559.666V170.422Z" fill="#050606"/>
<path d="M581.893 170.422C600.305 170.422 607 183.331 607 195.53C607 207.728 602.588 222.115 578.013 234.672C553.437 247.231 581.893 170.422 581.893 170.422Z" fill="#050606"/>
<path d="M524.991 200.257V201.593C538.964 196.057 571.537 194.974 585.587 199.321V197.999C568.076 192.402 542.901 193.777 524.991 200.257ZM524.991 181.349V182.687C538.634 177.209 571.495 175.477 585.587 179.882V178.56C568.315 172.993 542.256 174.873 524.991 181.349ZM524.991 219.2V220.528C539.295 214.937 571.58 214.502 585.587 218.791V217.477C567.836 211.85 543.551 212.715 524.991 219.2ZM524.621 105.946L524.652 106.955C524.67 107.056 524.699 107.153 524.716 107.254C536.819 101.944 571.223 97.5268 585.586 102.2V100.88C569.129 95.3858 539.199 99.3846 524.621 105.946ZM524.991 162.449V163.791C538.306 158.368 571.452 155.989 585.587 160.452V159.131C568.553 153.591 541.612 155.975 524.991 162.449ZM524.996 238.098C524.999 238.539 525.002 238.979 525.013 239.418C539.657 233.778 571.629 233.995 585.586 238.222V236.907C567.597 231.254 544.204 231.612 524.996 238.098ZM524.991 124.69V126.038C537.65 120.726 571.368 117.051 585.587 121.632V120.312C569.028 114.832 540.332 118.221 524.991 124.69ZM524.991 143.591V144.936C537.978 139.568 571.41 136.541 585.587 141.064V139.742C568.791 134.233 540.971 137.121 524.991 143.591Z" fill="white"/>
<path d="M508.759 89.8735L508.773 89.8787C508.896 89.9101 509.019 89.9385 509.142 89.9676C489.042 79.6818 491.96 43.5006 517.228 42.6091C516.925 42.5635 516.538 42.5135 516.407 42.5C491.326 42.4993 486.297 78.5556 508.759 89.8735Z" fill="white"/>
<path d="M514.352 90.6388C514.488 90.6441 514.626 90.6493 514.762 90.653C496.57 79.6685 501.908 45.4729 523.747 43.6704C523.348 43.6136 522.964 43.5568 522.597 43.5C500.641 45.1164 494.498 79.4137 514.352 90.6388Z" fill="white"/>
<path d="M519.595 90.6925C519.862 90.7097 520.119 90.7381 520.367 90.7732C509.015 79.0996 513.713 50.0439 532.92 44.5573C532.558 44.5304 532.197 44.5042 531.851 44.4766C511.038 48.8819 506.519 79.6063 519.595 90.6925Z" fill="white"/>
<path d="M552.023 45.668C532.249 50.624 517.837 75.5165 522.008 91.1635C522.281 91.2606 522.531 91.3712 522.768 91.4908C520.816 77.3258 534.416 51.3086 554.054 45.7136C553.378 45.6949 552.701 45.6799 552.023 45.668Z" fill="white"/>
<path d="M577.946 56.8102C555.123 54.4816 526.587 75.0472 523.636 92.0415C523.909 92.2538 524.144 92.4802 524.334 92.7171C528.21 78.0753 556.265 56.6547 578.605 57.967L577.946 56.8102Z" fill="white"/>
<path d="M586.193 80.1619C567.78 71.3356 537.396 82.1221 524.966 94.0654C524.982 94.1745 524.99 94.2829 524.99 94.3897V95.4135C536.707 84.1428 570.487 76.001 586.234 81.4929L586.193 80.1619Z" fill="white"/>
<path d="M552.919 45.6871C550.875 40.0711 543.04 30.5139 534.866 29.4453C534.766 29.4902 533.722 29.9273 533.722 29.9273C541.463 31.4369 549.517 41.1473 551.132 45.634L552.919 45.6871Z" fill="white"/>
<path d="M522.595 43.4998C518.403 39.4248 512.162 39.5616 509.177 40.5076L505.832 41.9821C507.476 41.2572 516.278 39.8926 521.501 43.2726L522.595 43.4998Z" fill="white"/>
<path d="M519.854 35.8689C526.884 34.4371 533.348 41.0955 535.297 44.7902L537.802 44.983C535.557 40.3953 527.869 33.4073 521.344 35.2247L519.854 35.8689Z" fill="white"/>
<path d="M545.415 19.7719C539.677 14.5931 541.36 3.3433 545.091 0.496094C544.441 0.571571 543.811 0.663489 543.195 0.766616C538.865 4.34169 538.754 15.7477 545.415 19.7719ZM545.415 19.7719C545.415 19.7719 545.524 19.7846 545.415 19.7719V19.7719ZM545.688 24.3244C545.548 24.4604 545.392 24.5927 545.224 24.722C538.588 22.2178 527.789 22.4009 522.675 24.7937C522.689 25.4663 522.726 26.1284 522.787 26.7763C527.068 24.8535 537.279 23.3059 544.555 25.2249C544.599 25.204 544.657 25.1666 544.718 25.1248C557.699 22.2686 570.166 37.849 563.769 47.2306C564.148 47.061 564.515 46.8727 564.878 46.6761C571.3 38.9214 561.524 21.1357 545.688 24.3244ZM546.431 21.676C540.094 19.0276 531.763 13.4184 527.007 10.0525C526.48 10.7841 526.004 11.5367 525.583 12.3094C531.547 15.7298 539.632 19.8429 546.302 22.5309C546.593 21.9929 546.431 21.676 546.431 21.676ZM546.446 20.6918C546.445 20.6858 546.449 20.7038 546.452 20.709C555.208 9.90308 574.036 15.9995 575.543 29.968C575.765 28.6236 575.897 27.2561 575.933 25.8818C572.756 12.7286 552.088 9.17596 546.446 20.6918ZM565.436 4.24753C564.88 3.88808 564.302 3.54656 563.698 3.22896C554.887 2.0445 544.14 9.10572 545.893 19.7712C546.751 9.45396 556.336 3.1632 565.436 4.24753Z" fill="white"/>
<path d="M524.99 110.532C524.99 110.309 524.97 110.092 524.963 109.871C520.39 102.116 507.32 94.276 498.948 98.7067C498.751 99.0206 498.554 99.3329 498.354 99.6475C505.755 95.8625 521.013 104.77 524.99 112.968V110.532Z" fill="white"/>
<path d="M490.327 111.766C490.093 112.106 489.858 112.446 489.622 112.788C497.656 109.089 516.46 121.134 518.052 130.684C518.279 130.236 518.507 129.792 518.734 129.348C517.552 119.874 500.007 107.066 490.327 111.766Z" fill="white"/>
<path d="M480.658 125.243C480.382 125.613 480.106 125.982 479.828 126.352C487.753 122.765 509.113 136.149 510.219 146.705C510.425 146.271 510.63 145.836 510.836 145.403C510.074 134.981 490.233 120.778 480.658 125.243Z" fill="white"/>
<path d="M469.482 139.637C469.171 140.024 468.863 140.41 468.55 140.796C476.677 138.052 500.968 151.429 502.863 162.644C503.062 162.204 503.26 161.764 503.459 161.325C501.775 150.215 479.018 136.097 469.482 139.637Z" fill="white"/>
<path d="M456.374 155.259C455.992 155.697 455.607 156.133 455.223 156.57C461.795 152.438 492.662 169.283 494.276 182.111C494.471 181.663 494.665 181.214 494.86 180.765C493.295 168.241 465.134 150.905 456.374 155.259Z" fill="white"/>
<path d="M485.981 201.572C486.167 201.129 486.356 200.683 486.543 200.239C485.038 186.876 452.205 166.845 443.026 169.961L441.783 171.27C448.925 168.363 484.58 187.938 485.981 201.572Z" fill="white"/>
<path d="M418.609 190.873C418.609 190.873 417.811 192.414 417.793 192.628C419.384 189.603 421.642 188.06 424.888 187.197L426.46 185.883C422.31 186.048 419.809 188.705 418.609 190.873Z" fill="white"/>
<path d="M430.152 176.491C430.152 176.491 428.909 177.476 428.49 177.926C431.337 177.209 432.691 178.487 433.762 179.502L435.273 177.982C434.307 177.096 431.882 175.743 430.152 176.491Z" fill="white"/>
<path d="M431.718 181.539C431.589 181.783 430.701 182.53 430.555 182.687C439.578 186.859 470.17 211.753 477.799 220.792C477.997 220.41 478.194 220.026 478.381 219.63C472.707 210.319 443.69 184.539 431.718 181.539Z" fill="white"/>
<path d="M428.832 184.371L428.147 185.137C420.274 202.064 450.62 233.578 471.603 229.169C471.951 228.835 472.295 228.497 472.63 228.143C459.484 231.735 423.624 205.497 428.832 184.371Z" fill="white"/>
<path d="M427.908 185.184L427.209 185.814C404.415 202.907 437.618 247.242 467.854 232.224C468.569 231.734 469.27 231.219 469.948 230.659C445.932 246.607 404.745 206.82 427.908 185.184Z" fill="white"/>
<path d="M424.887 187.195L424.091 187.914C405.921 203.971 422.966 233.643 445.923 237.445C453.434 238.264 461.08 236.721 467.432 232.513C467.434 232.511 467.437 232.508 467.439 232.508C439.531 250.241 399.685 211.589 424.887 187.195Z" fill="white"/>
<path d="M485.791 225.135H487.091C489.978 215.551 490.732 204.409 489.43 193.422C488.836 194.819 488.247 196.209 487.664 197.587C488.297 208.138 487.656 218.704 485.791 225.135Z" fill="white"/>
<path d="M590.044 175.229C562.843 172.712 550.47 186.665 545.23 219.681C543.825 228.532 538.458 237.033 535.547 237.662C545.218 242.234 555.427 239.54 564.881 234.903C572.531 231.15 581.914 235.521 593.774 224.215C602.355 216.034 590.044 175.229 590.044 175.229Z" fill="#050606"/>
<path d="M549.024 202.968C558.571 194.814 569.935 198.436 576.851 205.959C583.767 213.481 586.236 224.903 577.996 232.349L579.221 232.134C587.001 225.61 585.742 212.28 578.558 204.817C571.043 197.011 558.546 193.474 549.337 201.961L549.024 202.968Z" fill="white"/>
<path d="M553.668 191.936C563.74 180.475 582.106 184.196 590.547 193.419C598.989 202.643 599.985 218.316 590.04 227.341L591.113 226.642C601.643 217.457 600.929 201.6 592.609 192.038C583.737 181.841 564.884 178.052 554.441 190.605L553.668 191.936Z" fill="white"/>
<path d="M568.453 177.861C576.651 174.941 588.671 173.951 598.77 184.97C607.218 194.187 606.226 210.131 598.592 219.269L599.329 218.36C606.606 211.348 608.667 194.056 600.085 184.337C589.664 172.535 575.2 174.231 569.648 177.367L568.453 177.861Z" fill="white"/>
<path d="M545.353 218.93C550.607 214.192 557.995 215.493 561.984 219.908C565.973 224.323 566.563 231.852 561.207 236.583L562.416 236.059C568.655 231.2 567.972 223.686 563.716 219.096C559.176 214.199 550.674 212.526 545.586 217.538L545.353 218.93Z" fill="white"/>
<path d="M540.775 232.073C543.275 229.82 546.456 230.823 548.354 232.924C550.252 235.024 550.516 238.45 547.84 240.032L548.477 240.046C552.154 238.743 551.72 233.71 549.695 231.526C547.535 229.196 542.893 228.747 541.162 231.439L540.775 232.073Z" fill="white"/>
<path d="M505.321 170.422C510.977 183.596 510.639 212.643 506.301 225.13H507.616C513.399 208.899 513.125 187.744 506.653 170.422H505.321Z" fill="white"/>
<path d="M586.356 267.789C586.292 267.334 586.243 266.877 586.188 266.42C572.992 261.571 548.628 268.698 538.647 278.943C538.912 279.3 539.183 279.652 539.454 280.003C550.323 270.753 573.619 264.644 586.356 267.789ZM585.586 254.72V253.374C571.482 247.367 541.359 249.767 528.293 258.829C528.426 259.244 528.561 259.657 528.701 260.068C542.634 252.047 571.875 250.223 585.586 254.72ZM596.846 297.726C592.117 296.503 587.791 303.106 591.367 306.823C591.746 306.838 592.125 306.855 592.505 306.864C589.438 303.245 593.143 297.59 597.196 298.323C597.077 298.125 596.964 297.925 596.846 297.726ZM592.363 289.011C581.912 284.635 571.981 295.42 573.207 303.635C573.614 303.764 574.024 303.889 574.434 304.011C574.42 295.704 583.426 286.468 592.805 289.979C592.659 289.657 592.506 289.335 592.363 289.011ZM588.781 279.112C588.672 278.738 588.565 278.363 588.462 277.987C573.41 272.865 558.808 283.528 556.995 296.034C557.29 296.222 557.587 296.405 557.884 296.589C561.247 284.413 575.308 275.557 588.781 279.112Z" fill="white"/>
<path d="M304.093 52.9297C233.209 52.9297 205.639 110.392 205.639 181.276C205.639 252.159 233.209 309.622 304.093 309.622C374.976 309.622 402.547 252.159 402.547 181.276C402.547 110.392 374.976 52.9297 304.093 52.9297ZM304.093 290.265C278.947 290.265 269.166 241.468 269.166 181.276C269.166 121.083 278.946 72.2869 304.093 72.2869C329.24 72.2869 339.02 121.083 339.02 181.276C339.02 241.468 329.24 290.265 304.093 290.265Z" fill="#050606"/>
<path d="M286.443 275.602C284.295 292.328 266.449 303.098 253.236 299.77L254.878 300.766C268.092 304.095 284.733 295.161 286.88 278.436L286.443 275.602Z" fill="white"/>
<path d="M293.558 286.383C294.046 295.211 288.385 303.539 281.551 309.064L283.423 309.494C288.906 305.757 296.12 296.849 294.836 286.759L293.558 286.383Z" fill="white"/>
<path d="M315.067 285.637C314.579 294.465 320.24 302.792 327.074 308.318L325.202 308.748C319.719 305.01 312.505 296.103 313.789 286.013L315.067 285.637Z" fill="white"/>
<path d="M285.24 90.9466C285.735 74.0905 268.617 61.6502 255.046 62.8706L256.824 62.1435C270.395 60.9231 286.612 71.3599 286.116 88.2159L285.24 90.9466Z" fill="white"/>
<path d="M280.367 98.0629C276.907 83.6699 252.525 74.4401 235.54 75.9115L237.286 75.0835C253.914 73.3998 278.893 80.9498 281.227 95.5647L280.367 98.0629Z" fill="white"/>
<path d="M276.352 111.191C268.41 99.2607 240.951 91.7467 221.93 93.4707L223.409 92.5418C241.673 90.3955 271.522 96.5525 277.082 108.927L276.352 111.191Z" fill="white"/>
<path d="M273.153 126.613C261.307 117.146 233.096 111.348 213.651 113.323L214.726 112.294C233.071 109.685 265.301 114.449 273.683 124.582L273.153 126.613Z" fill="white"/>
<path d="M270.703 143.597C255.846 136.592 228.155 132.51 209.153 134.736L209.819 133.606C227.458 130.535 260.464 133.906 271.031 141.799L270.703 143.597Z" fill="white"/>
<path d="M270.466 159.938C252.789 155.396 225.224 153.03 206.386 155.508L206.7 154.277C223.93 150.742 258.011 152.722 270.62 158.373L270.466 159.938Z" fill="white"/>
<path d="M270.211 174.981C250.377 173.548 223.042 173.514 204.247 174.981V173.65C216.826 170.651 260.041 171.234 270.211 173.65V174.981Z" fill="white"/>
<path d="M280.367 264.488C276.907 278.881 252.525 288.111 235.54 286.64L237.286 287.468C253.914 289.151 278.893 281.601 281.227 266.987L280.367 264.488Z" fill="white"/>
<path d="M276.352 252.109C268.41 264.04 240.951 271.554 221.93 269.83L223.409 270.759C241.673 272.905 271.522 266.748 277.082 254.374L276.352 252.109Z" fill="white"/>
<path d="M272.405 236.684C260.559 246.151 232.348 251.949 212.903 249.974L213.978 251.003C232.323 253.612 264.553 248.848 272.935 238.715L272.405 236.684Z" fill="white"/>
<path d="M270.703 219.703C255.846 226.708 228.155 230.79 209.153 228.564L209.819 229.694C227.458 232.765 260.464 229.394 271.031 221.501L270.703 219.703Z" fill="white"/>
<path d="M270.466 203.363C252.789 207.905 225.224 210.271 206.386 207.793L206.7 209.024C223.93 212.559 258.011 210.579 270.62 204.928L270.466 203.363Z" fill="white"/>
<path d="M270.134 187.312C250.385 189.135 222.82 190.344 204.2 189.323L204.241 190.654C216.938 193.274 260.11 191.361 270.174 188.643L270.134 187.312Z" fill="white"/>
<path d="M322.874 87.332C325.022 70.6059 343.615 60.5824 356.828 63.9109L355.186 62.9147C341.972 59.5855 324.584 67.7714 322.437 84.4975L322.874 87.332Z" fill="white"/>
<path d="M322.583 274.238C322.088 291.094 342.195 301.293 355.766 300.072L353.988 300.799C340.417 302.02 321.211 293.825 321.707 276.969L322.583 274.238Z" fill="white"/>
<path d="M328.204 264.125C331.663 278.518 356.046 287.748 373.031 286.276L371.284 287.104C354.657 288.788 329.678 281.238 327.344 266.623L328.204 264.125Z" fill="white"/>
<path d="M332.218 250.25C340.16 262.181 367.619 269.695 386.64 267.971L385.161 268.9C366.897 271.046 337.048 264.889 331.488 252.514L332.218 250.25Z" fill="white"/>
<path d="M335.417 234.828C347.262 244.296 375.473 250.094 394.919 248.119L393.844 249.148C375.5 251.757 343.269 246.993 334.888 236.859L335.417 234.828Z" fill="white"/>
<path d="M337.123 217.848C352.116 224.853 380.061 228.935 399.236 226.708L398.564 227.838C380.764 230.91 347.456 227.539 336.792 219.646L337.123 217.848Z" fill="white"/>
<path d="M337.359 201.5C355.341 206.042 383.383 208.408 402.547 205.93L402.227 207.161C384.7 210.696 350.029 208.716 337.201 203.065L337.359 201.5Z" fill="white"/>
<path d="M337.611 186.461C357.537 187.178 385.101 188.05 403.575 186.461V187.793C390.996 190.792 347.781 190.209 337.611 187.793V186.461Z" fill="white"/>
<path d="M327.457 96.9496C330.916 82.5566 355.299 73.3268 372.283 74.7982L370.537 73.9702C353.91 72.2865 328.93 79.8365 326.597 94.4514L327.457 96.9496Z" fill="white"/>
<path d="M331.471 109.332C339.413 97.4014 366.872 89.8873 385.893 91.6113L384.414 90.6824C366.15 88.5362 336.301 94.6932 330.741 107.068L331.471 109.332Z" fill="white"/>
<path d="M334.67 124.758C346.515 115.29 374.726 109.492 394.172 111.467L393.097 110.438C374.753 107.829 342.522 112.593 334.141 122.727L334.67 124.758Z" fill="white"/>
<path d="M337.12 141.734C351.977 134.728 379.668 130.647 398.67 132.873L398.004 131.743C380.365 128.671 347.358 132.043 336.792 139.936L337.12 141.734Z" fill="white"/>
<path d="M338.104 158.083C355.78 153.54 383.345 151.174 402.184 153.653L401.869 152.422C384.64 148.887 350.559 150.867 337.949 156.518L338.104 158.083Z" fill="white"/>
<path d="M337.69 174.128C357.625 172.069 384.973 171.21 403.623 172.117L403.583 170.787C390.885 168.166 347.713 170.08 337.649 172.797L337.69 174.128Z" fill="white"/>
<path d="M304.59 310.409H303.738C303.518 304.873 303.244 295.745 303.738 289.5H304.59C305.578 295.8 305.1 304.741 304.59 310.409Z" fill="white"/>
<path d="M315.067 76.2054C314.579 67.3776 318.745 59.0497 325.579 53.5242L323.708 53.0938C318.225 56.8317 312.505 65.7388 313.789 75.8295L315.067 76.2054Z" fill="white"/>
<path d="M293.558 76.9554C294.046 68.1276 289.88 59.7997 283.046 54.2742L284.918 53.8438C290.401 57.5817 296.121 66.4888 294.837 76.5795L293.558 76.9554Z" fill="white"/>
<path d="M304.037 52.1836H304.889C305.108 57.7196 305.383 66.8478 304.889 73.093H304.037C303.048 66.7933 303.526 57.8518 304.037 52.1836Z" fill="white"/>
</svg>
